<mxfile host="app.diagrams.net" modified="2021-06-03T22:15:16.047Z" agent="5.0 (Windows NT 10.0; Win64; x64) AppleWebKit/537.36 (KHTML, like Gecko) Chrome/90.0.4430.212 Safari/537.36" etag="jw9zXiV-fH-hQw6dRchf" version="14.6.6" type="github">
  <diagram id="TTeWuGK_N1w3ZF10THAs" name="Page-1">
    <mxGraphModel dx="868" dy="482" grid="1" gridSize="10" guides="1" tooltips="1" connect="1" arrows="1" fold="1" page="1" pageScale="1" pageWidth="827" pageHeight="1169" math="0" shadow="0">
      <root>
        <mxCell id="0" />
        <mxCell id="1" parent="0" />
        <mxCell id="73fXxVTonlHXJbU47xhf-3" value="Загрузить 3D модель" style="ellipse;whiteSpace=wrap;html=1;" parent="1" vertex="1">
          <mxGeometry x="480" y="240" width="140" height="60" as="geometry" />
        </mxCell>
        <mxCell id="73fXxVTonlHXJbU47xhf-4" value="Пользователь" style="shape=umlActor;verticalLabelPosition=bottom;verticalAlign=top;html=1;" parent="1" vertex="1">
          <mxGeometry x="110" y="400" width="30" height="60" as="geometry" />
        </mxCell>
        <mxCell id="239sjALaaFQrel0IKYAk-12" value="Загрузить сцену" style="ellipse;whiteSpace=wrap;html=1;" vertex="1" parent="1">
          <mxGeometry x="480" y="320" width="140" height="60" as="geometry" />
        </mxCell>
        <mxCell id="239sjALaaFQrel0IKYAk-14" value="Просмотреть 3D модель" style="ellipse;whiteSpace=wrap;html=1;" vertex="1" parent="1">
          <mxGeometry x="280" y="240" width="140" height="60" as="geometry" />
        </mxCell>
        <mxCell id="239sjALaaFQrel0IKYAk-15" value="Просмотреть сцену" style="ellipse;whiteSpace=wrap;html=1;" vertex="1" parent="1">
          <mxGeometry x="280" y="320" width="140" height="60" as="geometry" />
        </mxCell>
        <mxCell id="239sjALaaFQrel0IKYAk-20" value="Создать камеру" style="ellipse;whiteSpace=wrap;html=1;" vertex="1" parent="1">
          <mxGeometry x="274" y="420" width="140" height="60" as="geometry" />
        </mxCell>
        <mxCell id="239sjALaaFQrel0IKYAk-21" value="Редактировать 3D модель" style="ellipse;whiteSpace=wrap;html=1;" vertex="1" parent="1">
          <mxGeometry x="274" y="500" width="140" height="60" as="geometry" />
        </mxCell>
        <mxCell id="239sjALaaFQrel0IKYAk-22" value="Сохранить 3D модель" style="ellipse;whiteSpace=wrap;html=1;" vertex="1" parent="1">
          <mxGeometry x="280" y="585" width="140" height="60" as="geometry" />
        </mxCell>
        <mxCell id="239sjALaaFQrel0IKYAk-23" value="Сохранить результат фотореалистичного рендеринга" style="ellipse;whiteSpace=wrap;html=1;" vertex="1" parent="1">
          <mxGeometry x="280" y="670" width="140" height="60" as="geometry" />
        </mxCell>
        <mxCell id="239sjALaaFQrel0IKYAk-24" value="Переместить/сдвинуть камеру" style="ellipse;whiteSpace=wrap;html=1;" vertex="1" parent="1">
          <mxGeometry x="500" y="420" width="140" height="60" as="geometry" />
        </mxCell>
        <mxCell id="239sjALaaFQrel0IKYAk-25" value="Вращать камеру" style="ellipse;whiteSpace=wrap;html=1;" vertex="1" parent="1">
          <mxGeometry x="500" y="500" width="140" height="60" as="geometry" />
        </mxCell>
        <mxCell id="239sjALaaFQrel0IKYAk-26" value="Переключить камеру" style="ellipse;whiteSpace=wrap;html=1;" vertex="1" parent="1">
          <mxGeometry x="680" y="420" width="140" height="60" as="geometry" />
        </mxCell>
        <mxCell id="239sjALaaFQrel0IKYAk-27" value="Удалить камеру" style="ellipse;whiteSpace=wrap;html=1;" vertex="1" parent="1">
          <mxGeometry x="680" y="500" width="140" height="60" as="geometry" />
        </mxCell>
      </root>
    </mxGraphModel>
  </diagram>
</mxfile>
